<svg width="1600" height="900" viewBox="0 0 1600 900" xmlns="http://www.w3.org/2000/svg">
  <rect width="1600" height="900" fill="#05030b"/>
  <rect x="0" y="0" width="1600" height="900" fill="url(#bg)"/>
  <circle cx="320" cy="220" r="180" fill="#ff2ea5" fill-opacity="0.35"/>
  <circle cx="1260" cy="220" r="220" fill="#00f7ff" fill-opacity="0.2"/>
  <rect x="300" y="260" width="1000" height="420" rx="32" fill="#10081d" stroke="#ffdd5b" stroke-width="4"/>
  <rect x="360" y="320" width="260" height="260" rx="20" fill="#1f1230" stroke="#ffffff" stroke-opacity="0.2"/>
  <path d="M420 330 L560 330 L560 420 L500 470 L500 560 L420 520 Z" fill="#ff2ea5"/>
  <path d="M520 330 L660 330 L660 420 L600 470 L600 560 L520 520 Z" fill="#00f7ff" opacity="0.8"/>
  <circle cx="860" cy="430" r="120" fill="#ffdd5b" fill-opacity="0.15" stroke="#ffdd5b" stroke-width="6"/>
  <path d="M780 430 C840 320 970 320 1030 430" stroke="#ffdd5b" stroke-width="10" fill="none" stroke-linecap="round"/>
  <text x="800" y="670" text-anchor="middle" font-family="Arial Black, Impact, sans-serif" font-size="72" fill="#ffffff" letter-spacing="6">FRIDAY NIGHT VICE</text>
  <text x="800" y="730" text-anchor="middle" font-family="Arial, sans-serif" font-size="28" fill="#c8b3ff" letter-spacing="6">SWEAT • SPARKS • SLEAZE</text>
  <defs>
    <linearGradient id="bg" x1="0" y1="0" x2="1600" y2="900" gradientUnits="userSpaceOnUse">
      <stop offset="0%" stop-color="#220a2a"/>
      <stop offset="100%" stop-color="#06030d"/>
    </linearGradient>
  </defs>
</svg>